# xmcd CD database file
#
# Track frame offsets:
#	895
#	9558
#	16872
#	23780
#	26258
#	40609
#	48402
#	66391
#	71606
#	81799
#	94498
#	104478
#	116207
#	125484
#	136945
#	148327
#	159672
#	169960
#	174662
#
# Disc length: 2595 seconds
#
# Revision: 0
# Processed by: cddbd v1.5.2PL0 Copyright (c) Steve Scherf et al.
# Submitted via: CDex 1.51
#
DISCID=0b0a1813
DTITLE=Marshall Govindan - BABAJI - Songs and Chants
DYEAR=1993
DGENRE=New Age
TTITLE0=Om Kriya Babaji Nama Aum
TTITLE1=Homage to the Eighteen Siddhas
TTITLE2=Song of the Science of Sun worship
TTITLE3=The Food Dedication Mantra
TTITLE4=Babaji is Love
TTITLE5=Amazing Grace
TTITLE6=Lord of the Dance
TTITLE7=Guru Brahma
TTITLE8=Jai Ganesha
TTITLE9=Jai Guru
TTITLE10=Om Namah Shivaya
TTITLE11=Sri Ram
TTITLE12=Om Namo Bhagavate Vasudevaya
TTITLE13=Hare Krishna
TTITLE14=Govinda Jai
TTITLE15=Shivaya Nama Om
TTITLE16=Babaji Guru Deva
TTITLE17=Shanti Mantra
TTITLE18=Bonus Track
EXTD=YEAR: 1993
EXTT0=
EXTT1=
EXTT2=
EXTT3=
EXTT4=
EXTT5=
EXTT6=
EXTT7=
EXTT8=
EXTT9=
EXTT10=
EXTT11=
EXTT12=
EXTT13=
EXTT14=
EXTT15=
EXTT16=
EXTT17=
EXTT18=
PLAYORDER=
